<svg xmlns="http://www.w3.org/2000/svg" version="1.1" xmlns:xlink="http://www.w3.org/1999/xlink" xmlns:svgjs="http://svgjs.com/svgjs" width="1440" height="250" preserveAspectRatio="none" viewBox="0 0 1440 250"><g mask="url(&quot;#SvgjsMask1023&quot;)" fill="none"><path d="M40 250L290 0L356 0L106 250z" fill="url(#SvgjsLinearGradient1024)"></path><path d="M282.6 250L532.6 0L736.6 0L486.6 250z" fill="url(#SvgjsLinearGradient1024)"></path><path d="M520.2 250L770.2 0L1017.7 0L767.7 250z" fill="url(#SvgjsLinearGradient1024)"></path><path d="M742.8000000000001 250L992.8000000000001 0L1289.8000000000002 0L1039.8000000000002 250z" fill="url(#SvgjsLinearGradient1024)"></path><path d="M1409 250L1159 0L839.5 0L1089.5 250z" fill="url(#SvgjsLinearGradient1025)"></path><path d="M1187.4 250L937.4000000000001 0L815.9000000000001 0L1065.9 250z" fill="url(#SvgjsLinearGradient1025)"></path><path d="M931.8 250L681.8 0L549.8 0L799.8 250z" fill="url(#SvgjsLinearGradient1025)"></path><path d="M694.1999999999999 250L444.19999999999993 0L393.19999999999993 0L643.1999999999999 250z" fill="url(#SvgjsLinearGradient1025)"></path><path d="M1232.5752841201763 250L1440 42.575284120176406L1440 250z" fill="url(#SvgjsLinearGradient1024)"></path><path d="M0 250L207.4247158798236 250L 0 42.575284120176406z" fill="url(#SvgjsLinearGradient1025)"></path></g><defs><mask id="SvgjsMask1023"><rect width="1440" height="250" fill="#ffffff"></rect></mask><linearGradient x1="0%" y1="100%" x2="100%" y2="0%" id="SvgjsLinearGradient1024"><stop stop-color="rgba(187, 0, 14, 0.2)" offset="0"></stop><stop stop-opacity="0" stop-color="rgba(187, 0, 14, 0.2)" offset="0.66"></stop></linearGradient><linearGradient x1="100%" y1="100%" x2="0%" y2="0%" id="SvgjsLinearGradient1025"><stop stop-color="rgba(187, 0, 14, 0.2)" offset="0"></stop><stop stop-opacity="0" stop-color="rgba(187, 0, 14, 0.2)" offset="0.66"></stop></linearGradient></defs></svg>