<svg xmlns="http://www.w3.org/2000/svg" version="1.1" xmlns:xlink="http://www.w3.org/1999/xlink" xmlns:svgjs="http://svgjs.com/svgjs" width="1440" height="560" preserveAspectRatio="none" viewBox="0 0 1440 560"><g mask="url(&quot;#SvgjsMask1070&quot;)" fill="none"><path d="M -495.03062342436135,360 C -399.03,307 -207.03,81.2 -15.030623424361345,95 C 176.97,108.8 272.97,417.8 464.96937657563865,429 C 656.97,440.2 752.97,131.2 944.9693765756386,151 C 1136.97,170.8 1325.96,537.4 1424.9693765756388,528 C 1523.98,518.6 1436.99,188.8 1440,104" stroke="rgba(169, 0, 17, 0.18823529411764706)" stroke-width="2"></path><path d="M -330.5987183519884,220 C -234.6,279.8 -42.6,524.6 149.40128164801163,519 C 341.4,513.4 437.4,211 629.4012816480116,192 C 821.4,173 917.4,425.2 1109.4012816480117,424 C 1301.4,422.8 1523.28,172.2 1589.4012816480117,186 C 1655.52,199.8 1469.88,431.6 1440,493" stroke="rgba(169, 0, 17, 0.18823529411764706)" stroke-width="2"></path><path d="M -456.95937004722873,455 C -360.96,388.6 -168.96,153.8 23.040629952771248,123 C 215.04,92.2 311.04,283.2 503.04062995277127,301 C 695.04,318.8 791.04,185.6 983.0406299527713,212 C 1175.04,238.4 1371.65,466.2 1463.0406299527713,433 C 1554.43,399.8 1444.61,123.4 1440,46" stroke="rgba(169, 0, 17, 0.18823529411764706)" stroke-width="2"></path><path d="M -595.333951780806,87 C -499.33,168 -307.33,464.8 -115.33395178080599,492 C 76.67,519.2 172.67,250.6 364.666048219194,223 C 556.67,195.4 652.67,355.8 844.666048219194,354 C 1036.67,352.2 1205.6,219.2 1324.666048219194,214 C 1443.73,208.8 1416.93,305.2 1440,328" stroke="rgba(169, 0, 17, 0.18823529411764706)" stroke-width="2"></path><path d="M -44.490737824616474,139 C 51.51,185.4 243.51,393 435.5092621753835,371 C 627.51,349 723.51,38.6 915.5092621753836,29 C 1107.51,19.4 1203.51,298.4 1395.5092621753836,323 C 1587.51,347.6 1866.61,112.6 1875.5092621753836,152 C 1884.41,191.4 1527.1,446.4 1440,520" stroke="rgba(169, 0, 17, 0.18823529411764706)" stroke-width="2"></path></g><defs><mask id="SvgjsMask1070"><rect width="1440" height="560" fill="#ffffff"></rect></mask></defs></svg>