<svg xmlns="http://www.w3.org/2000/svg" version="1.1" xmlns:xlink="http://www.w3.org/1999/xlink" xmlns:svgjs="http://svgjs.dev/svgjs" width="1920" height="1080" preserveAspectRatio="none" viewBox="0 0 1920 1080"><g mask="url(&quot;#SvgjsMask1091&quot;)" fill="none"><path d="M -161.75226677783667,509 C -33.75,544.2 222.25,691 478.24773322216333,685 C 734.25,679 862.25,458.8 1118.2477332221633,479 C 1374.25,499.2 1502.25,802.2 1758.2477332221633,786 C 2014.25,769.8 2365.9,440.4 2398.2477332221633,398 C 2430.6,355.6 2015.65,538.8 1920,574" stroke="rgba(251, 235, 216, 0.15)" stroke-width="2"></path><path d="M -1046.7456792590167,202 C -918.75,285.6 -662.75,585 -406.7456792590167,620 C -150.75,655 -22.75,383.2 233.2543207409833,377 C 489.25,370.8 617.25,604.8 873.2543207409833,589 C 1129.25,573.2 1303.91,249.4 1513.2543207409833,298 C 1722.6,346.6 1838.65,725.2 1920,832" stroke="rgba(251, 235, 216, 0.15)" stroke-width="2"></path><path d="M -769.840304347495,564 C -641.84,517.2 -385.84,273.6 -129.840304347495,330 C 126.16,386.4 254.16,843.4 510.159695652505,846 C 766.16,848.6 894.16,347.2 1150.159695652505,343 C 1406.16,338.8 1636.19,809.6 1790.159695652505,825 C 1944.13,840.4 1894.03,501 1920,420" stroke="rgba(251, 235, 216, 0.15)" stroke-width="2"></path><path d="M -82.04248330430619,796 C 45.96,698.4 301.96,295 557.9575166956938,308 C 813.96,321 941.96,823 1197.9575166956938,861 C 1453.96,899 1581.96,554.6 1837.9575166956938,498 C 2093.96,441.4 2461.55,586.4 2477.957516695694,578 C 2494.37,569.6 2031.59,480.4 1920,456" stroke="rgba(251, 235, 216, 0.15)" stroke-width="2"></path><path d="M -863.2681515124331,411 C -735.27,497.8 -479.27,889.4 -223.2681515124331,845 C 32.73,800.6 160.73,242 416.73184848756694,189 C 672.73,136 800.73,558.8 1056.7318484875668,580 C 1312.73,601.2 1524.08,238.6 1696.7318484875668,295 C 1869.39,351.4 1875.35,748.6 1920,862" stroke="rgba(251, 235, 216, 0.15)" stroke-width="2"></path></g><defs><mask id="SvgjsMask1091"><rect width="1920" height="1080" fill="#ffffff"></rect></mask></defs></svg>